<svg width="240" height="50" viewBox="0 0 240 50" fill="none" xmlns="http://www.w3.org/2000/svg">
<g clip-path="url(#clip0_1_19)">
<path d="M71.0307 15.7827C73.9907 15.7827 76.5773 16.3694 78.7907 17.5427C81.004 18.7161 82.7107 20.3694 83.9107 22.5027C85.1373 24.6094 85.7507 27.0494 85.7507 29.8227C85.7507 32.5694 85.1373 35.0094 83.9107 37.1427C82.7107 39.2761 80.9907 40.9294 78.7507 42.1027C76.5373 43.2761 73.964 43.8627 71.0307 43.8627H60.5107V15.7827H71.0307ZM70.5907 37.9427C73.1773 37.9427 75.1907 37.2361 76.6307 35.8227C78.0707 34.4094 78.7907 32.4094 78.7907 29.8227C78.7907 27.2361 78.0707 25.2227 76.6307 23.7827C75.1907 22.3427 73.1773 21.6227 70.5907 21.6227H67.3507V37.9427H70.5907ZM96.4132 15.7827V43.8627H89.5732V15.7827H96.4132ZM108.21 21.2627V26.9427H117.37V32.2227H108.21V38.3827H118.57V43.8627H101.37V15.7827H118.57V21.2627H108.21ZM143.211 15.7827V21.2627H135.771V43.8627H128.931V21.2627H121.491V15.7827H143.211ZM164.123 38.9027H153.643L151.963 43.8627H144.803L154.963 15.7827H162.883L173.043 43.8627H165.803L164.123 38.9027ZM162.363 33.6227L158.883 23.3427L155.443 33.6227H162.363ZM202.212 15.7827V34.9027C202.212 37.8627 201.372 40.1427 199.692 41.7427C198.039 43.3427 195.799 44.1427 192.972 44.1427C190.012 44.1427 187.639 43.3027 185.852 41.6227C184.066 39.9427 183.172 37.5561 183.172 34.4627H189.972C189.972 35.6361 190.212 36.5294 190.692 37.1427C191.172 37.7294 191.866 38.0227 192.772 38.0227C193.599 38.0227 194.239 37.7561 194.692 37.2227C195.146 36.6894 195.372 35.9161 195.372 34.9027V15.7827H202.212ZM225.217 38.9027H214.737L213.057 43.8627H205.897L216.057 15.7827H223.977L234.137 43.8627H226.897L225.217 38.9027ZM223.457 33.6227L219.977 23.3427L216.537 33.6227H223.457ZM224.657 10.1427L215.017 14.1827V9.46275L224.657 4.82274V10.1427Z" fill="white"/>
<path d="M28.8797 43.1373C33.3696 43.1373 37.6757 41.278 40.8506 37.9686C44.0255 34.6591 45.8091 30.1705 45.8091 25.4902H11.9502C11.9502 30.1705 13.7338 34.6591 16.9087 37.9686C18.4808 39.6072 20.3471 40.9071 22.401 41.794C24.455 42.6808 26.6565 43.1373 28.8797 43.1373V43.1373Z" stroke="white" stroke-width="4" stroke-linecap="round" stroke-linejoin="round"/>
<path d="M30.8714 14.7059L37.8423 6.86275" stroke="white" stroke-width="3" stroke-linecap="round" stroke-linejoin="round"/>
<path d="M35.5055 19.1478L45.8851 14.3445" stroke="white" stroke-width="3" stroke-linecap="round" stroke-linejoin="round"/>
</g>
<defs>
<clipPath id="clip0_1_19">
<rect width="240" height="50" fill="white"/>
</clipPath>
</defs>
</svg>
