<svg width="228" height="60" viewBox="0 0 228 60" fill="none" xmlns="http://www.w3.org/2000/svg">
<path d="M64.6406 15.92C67.6006 15.92 70.1873 16.5067 72.4006 17.68C74.614 18.8533 76.3206 20.5067 77.5206 22.64C78.7473 24.7467 79.3606 27.1867 79.3606 29.96C79.3606 32.7067 78.7473 35.1467 77.5206 37.28C76.3206 39.4133 74.6006 41.0667 72.3606 42.24C70.1473 43.4133 67.574 44 64.6406 44H54.1206V15.92H64.6406ZM64.2006 38.08C66.7873 38.08 68.8006 37.3733 70.2406 35.96C71.6806 34.5467 72.4006 32.5467 72.4006 29.96C72.4006 27.3733 71.6806 25.36 70.2406 23.92C68.8006 22.48 66.7873 21.76 64.2006 21.76H60.9606V38.08H64.2006Z" fill="white"/>
<path d="M90.0231 15.92V44H83.1831V15.92H90.0231Z" fill="white"/>
<path d="M101.82 21.4V27.08H110.98V32.36H101.82V38.52H112.18V44H94.98V15.92H112.18V21.4H101.82Z" fill="white"/>
<path d="M136.821 15.92V21.4H129.381V44H122.541V21.4H115.101V15.92H136.821Z" fill="white"/>
<path d="M157.733 39.04H147.253L145.573 44H138.413L148.573 15.92H156.493L166.653 44H159.413L157.733 39.04ZM155.973 33.76L152.493 23.48L149.053 33.76H155.973Z" fill="white"/>
<path d="M195.822 15.92V35.04C195.822 38 194.982 40.28 193.302 41.88C191.649 43.48 189.409 44.28 186.582 44.28C183.622 44.28 181.249 43.44 179.462 41.76C177.676 40.08 176.782 37.6933 176.782 34.6H183.582C183.582 35.7733 183.822 36.6667 184.302 37.28C184.782 37.8667 185.476 38.16 186.382 38.16C187.209 38.16 187.849 37.8933 188.302 37.36C188.756 36.8267 188.982 36.0533 188.982 35.04V15.92H195.822Z" fill="white"/>
<path d="M218.827 39.04H208.347L206.667 44H199.507L209.667 15.92H217.587L227.747 44H220.507L218.827 39.04ZM217.067 33.76L213.587 23.48L210.147 33.76H217.067ZM218.267 10.28L208.627 14.32V9.6L218.267 4.96V10.28Z" fill="white"/>
<path fill-rule="evenodd" clip-rule="evenodd" d="M36.0254 3.36452C36.6525 3.90583 36.7221 4.85302 36.1808 5.48014L26.2414 16.9953C25.7001 17.6224 24.7529 17.692 24.1258 17.1507C23.4987 16.6094 23.4291 15.6622 23.9704 15.035L33.9098 3.51991C34.4511 2.89279 35.3983 2.82322 36.0254 3.36452ZM43.8109 10.6799C44.2136 11.4039 43.953 12.3172 43.229 12.7198L30.8048 19.6289C30.0808 20.0315 29.1675 19.771 28.7649 19.047C28.3622 18.323 28.6228 17.4097 29.3468 17.007L41.771 10.098C42.495 9.69533 43.4083 9.95587 43.8109 10.6799ZM0.43934 23.0152C0.720644 22.7338 1.10218 22.5758 1.5 22.5758H42.4999C43.3283 22.5758 43.9999 23.2474 43.9999 24.0758C43.9999 29.4149 41.6386 34.4982 37.4983 38.2193C33.3632 41.9357 27.7861 44 22 44C19.1318 44 16.2887 43.4925 13.6316 42.5033C10.9745 41.5141 8.55054 40.0608 6.50163 38.2193C2.36129 34.4982 0 29.4149 0 24.0758C0 23.678 0.158035 23.2965 0.43934 23.0152ZM3.07487 25.5758C3.46415 29.4673 5.36037 33.1601 8.50697 35.9881C10.2653 37.5683 12.3611 38.8292 14.6783 39.6918C16.9956 40.5545 19.4839 41 22 41C27.0877 41 31.939 39.1821 35.4929 35.9881C38.6395 33.1601 40.5358 29.4673 40.925 25.5758H3.07487Z" fill="white"/>
</svg>
